# xmcd CD database file
# Copyright (C) 1995-1998 Ti Kan
#
# Track frame offsets:
#	150
#	13902
#	34555
#	50465
#	73542
#	90660
#	108337
#	124187
#	134892
#	156722
#	172247
#	192755
#	209505
#	224160
#
# Disc length: 3313 seconds
#
# Revision: 1
# Processed by: cddbd v1.4PL0 Copyright (c) Steve Scherf et al.
# Submitted via: CDex 1.30Release
#
DISCID=e00cef0e
DTITLE=Preacher Boy - The Devil's Buttermilk
DYEAR=2000
DGENRE=Blues
TTITLE0=On and on it goes
TTITLE1=Glory man
TTITLE2=Friend's lament
TTITLE3=A golden thimble
TTITLE4=Spaceman
TTITLE5=The end of the moon
TTITLE6=Sorry
TTITLE7=(I woke up with a broken heart) this morning
TTITLE8=The dogs
TTITLE9=Rust
TTITLE10=A woman
TTITLE11=At the corner of the top and the bottom
TTITLE12=She says
TTITLE13=It's cold tonight
EXTD=YEAR: 2000 ID3G:   0
EXTT0=
EXTT1=
EXTT2=
EXTT3=
EXTT4=
EXTT5=
EXTT6=
EXTT7=
EXTT8=
EXTT9=
EXTT10=
EXTT11=
EXTT12=
EXTT13=
PLAYORDER=
